<svg width="20" height="20" viewBox="0 0 20 20" fill="none" xmlns="http://www.w3.org/2000/svg">
<path d="M9.99992 9.08325C12.5312 9.08325 14.5833 11.1353 14.5833 13.6666V19.1666H12.7499V13.6666C12.7499 12.202 11.6051 11.0049 10.1615 10.9213L9.99992 10.9166C8.53536 10.9166 7.33823 12.0614 7.25458 13.505L7.24992 13.6666V19.1666H5.41659V13.6666C5.41659 11.1353 7.46862 9.08325 9.99992 9.08325ZM4.04159 11.8333C4.2972 11.8333 4.54583 11.8631 4.78418 11.9196C4.6301 12.3778 4.53542 12.8618 4.50813 13.3634L4.49992 13.6666L4.50056 13.7451C4.39686 13.7084 4.28744 13.6837 4.17401 13.6729L4.04159 13.6666C3.32686 13.6666 2.73951 14.2119 2.67288 14.9091L2.66659 15.0416V19.1666H0.833252V15.0416C0.833252 13.2697 2.26967 11.8333 4.04159 11.8333ZM15.9583 11.8333C17.7302 11.8333 19.1666 13.2697 19.1666 15.0416V19.1666H17.3333V15.0416C17.3333 14.3269 16.7879 13.7396 16.0907 13.6729L15.9583 13.6666C15.7977 13.6666 15.6435 13.6941 15.5002 13.7447L15.4999 13.6666C15.4999 13.0564 15.4006 12.4694 15.2171 11.9209C15.454 11.8631 15.7026 11.8333 15.9583 11.8333ZM4.04159 6.33325C5.30724 6.33325 6.33325 7.35927 6.33325 8.62492C6.33325 9.89056 5.30724 10.9166 4.04159 10.9166C2.77593 10.9166 1.74992 9.89056 1.74992 8.62492C1.74992 7.35927 2.77593 6.33325 4.04159 6.33325ZM15.9583 6.33325C17.2239 6.33325 18.2499 7.35927 18.2499 8.62492C18.2499 9.89056 17.2239 10.9166 15.9583 10.9166C14.6926 10.9166 13.6666 9.89056 13.6666 8.62492C13.6666 7.35927 14.6926 6.33325 15.9583 6.33325ZM4.04159 8.16659C3.78846 8.16659 3.58325 8.37183 3.58325 8.62492C3.58325 8.87801 3.78846 9.08325 4.04159 9.08325C4.29471 9.08325 4.49992 8.87801 4.49992 8.62492C4.49992 8.37183 4.29471 8.16659 4.04159 8.16659ZM15.9583 8.16659C15.7052 8.16659 15.4999 8.37183 15.4999 8.62492C15.4999 8.87801 15.7052 9.08325 15.9583 9.08325C16.2113 9.08325 16.4166 8.87801 16.4166 8.62492C16.4166 8.37183 16.2113 8.16659 15.9583 8.16659ZM9.99992 0.833252C12.0249 0.833252 13.6666 2.47487 13.6666 4.49992C13.6666 6.52496 12.0249 8.16659 9.99992 8.16659C7.97487 8.16659 6.33325 6.52496 6.33325 4.49992C6.33325 2.47487 7.97487 0.833252 9.99992 0.833252ZM9.99992 2.66659C8.98737 2.66659 8.16659 3.4874 8.16659 4.49992C8.16659 5.51244 8.98737 6.33325 9.99992 6.33325C11.0125 6.33325 11.8333 5.51244 11.8333 4.49992C11.8333 3.4874 11.0125 2.66659 9.99992 2.66659Z" fill="#1D3C6D"/>
</svg>
