<svg
  width="23"
  height="22"
  viewBox="0 0 23 22"
  fill="none"
  xmlns="http://www.w3.org/2000/svg"
>
  <path
    d="M8.75 15.5833C8.75 15.5833 15.1667 16.5 17.9167 19.25H18.8333C19.3396 19.25 19.75 18.8396 19.75 18.3333V12.7756C20.5407 12.5721 21.125 11.8542 21.125 11C21.125 10.1458 20.5407 9.42792 19.75 9.22442V3.66667C19.75 3.16041 19.3396 2.75 18.8333 2.75H17.9167C15.1667 5.5 8.75 6.41667 8.75 6.41667H5.08333C4.07081 6.41667 3.25 7.23748 3.25 8.25V13.75C3.25 14.7625 4.07081 15.5833 5.08333 15.5833H6L6.91667 20.1667H8.75V15.5833ZM10.5833 7.93943C11.2097 7.80505 11.9835 7.61927 12.8194 7.37342C14.3577 6.92096 16.3125 6.20824 17.9167 5.11003V16.8899C16.3125 15.7918 14.3577 15.0791 12.8194 14.6266C11.9835 14.3808 11.2097 14.195 10.5833 14.0606V7.93943ZM5.08333 8.25H8.75V13.75H5.08333V8.25Z"
    fill="#BC0909"
  />
</svg>
